{"title":"The Lone Ranger(2013)MPEG-4[DaScubaDude]","uid":14722110,"size":1665270478,"categoryP":"video","categoryS":"movies","magnet":"?xt=urn:btih:896352ed1c403b25ddb6c87da903c28b8de1563f&amp;dn=The+Lone+Ranger%282013%29MPEG-4%5BDaScubaDude%5D&amp;tr=udp%3A%2F%2Ftracker.leechers-paradise.org%3A6969&amp;tr=udp%3A%2F%2Fzer0day.ch%3A1337&amp;tr=udp%3A%2F%2Fopen.demonii.com%3A1337&amp;tr=udp%3A%2F%2Ftracker.coppersurfer.tk%3A6969&amp;tr=udp%3A%2F%2Fexodus.desync.com%3A6969","seeders":0,"leechers":0,"uploader":"dascuba","files":1,"time":1464516708,"description":"The Lone Ranger (2013)\r\nPG-13 | 2h 30min | Action, Adventure, Western | 3 July 2013 (USA)\r\nNative American warrior Tonto recounts the untold tales that transformed John Reid, a man of the law, into a legend of justice.\r\nDirector: Gore Verbi\r\nWriters: Justin Haythe (screenplay), Ted Elliott (screenplay) | \r\nStars: Johnny Depp, Armie Hammer, William Fichtner |\r\n\r\nGeneral\r\nComplete name                            : LoneRangerLONE_RANGER_Title66.mp4\r\nFormat                                   : MPEG-4\r\nFormat profile                           : Base Media\r\nCodec ID                                 : isom (isom/iso2/avc1/mp41)\r\nFile size                                : 1.55 GiB\r\nDuration                                 : 2h 29mn\r\nOverall bit rate                         : 1 486 Kbps\r\nMovie name                               : LONE_RANGER\r\nGenre                                    : Western\r\nWriting application                      : Lavf54.6.100\r\n\r\nVideo\r\nID                                       : 1\r\nFormat                                   : AVC\r\nFormat/Info                              : Advanced Video Codec\r\nFormat profile                           :   \r\nFormat settings, CABAC                   : No\r\nFormat settings, ReFrames                : 6 frames\r\nCodec ID                                 : avc1\r\nCodec ID/Info                            : Advanced Video Coding\r\nDuration                                 : 2h 29mn\r\nBit rate                                 : 1 217 Kbps\r\nWidth                                    : 720 pixels\r\nHeight                                   : 404 pixels\r\nDisplay aspect ratio                     : 16:9\r\nFrame rate mode                          : Constant\r\nFrame rate                               : 29.970 (30000/1001) fps\r\nColor space                              : YUV\r\nChroma subsampling                       : 4:2:0\r\nBit depth                                : 8 bits\r\nScan type                                : Progressive\r\nBits/(Pixel*Frame)                       : 0.140\r\nStream size                              : 1.27 GiB (82%)\r\n\r\nAudio\r\nID                                       : 2\r\nFormat                                   : AAC\r\nFormat/Info                              : Advanced Audio Codec\r\nFormat profile                           : LC\r\nCodec ID                                 : 40\r\nDuration                                 : 2h 29mn\r\nBit rate mode                            : Constant\r\nBit rate                                 : 265 Kbps\r\nChannel(s)                               : 2 channels\r\nChannel(s)_Original                      : 6 channels\r\nChannel positions                        : Front: L C R, Side: L R, LFE\r\nSampling rate                            : 44.1 KHz\r\nFrame rate                               : 43.066 fps (1024 spf)\r\nCompression mode                         : Lossy\r\nStream size                              : 281 MiB (18%)\r\nDefault                                  : Yes\r\nAlternate group                          : 1","torrent":{"xt":"urn:btih:896352ed1c403b25ddb6c87da903c28b8de1563f","amp;dn":"The+Lone+Ranger%282013%29MPEG-4%5BDaScubaDude%5D","amp;tr":["udp%3A%2F%2Ftracker.leechers-paradise.org%3A6969","udp%3A%2F%2Fzer0day.ch%3A1337","udp%3A%2F%2Fopen.demonii.com%3A1337","udp%3A%2F%2Ftracker.coppersurfer.tk%3A6969","udp%3A%2F%2Fexodus.desync.com%3A6969"],"infoHash":"896352ed1c403b25ddb6c87da903c28b8de1563f","infoHashBuffer":{"type":"Buffer","data":[137,99,82,237,28,64,59,37,221,182,200,125,169,3,194,139,141,225,86,63]},"announce":[],"urlList":[]}}